<?xml version="1.0" encoding="UTF-8" standalone="no"?>
<!-- Creator: CorelDRAW X7 -->

<svg
   xmlns:dc="http://purl.org/dc/elements/1.1/"
   xmlns:cc="http://creativecommons.org/ns#"
   xmlns:rdf="http://www.w3.org/1999/02/22-rdf-syntax-ns#"
   xmlns:svg="http://www.w3.org/2000/svg"
   xmlns="http://www.w3.org/2000/svg"
   xmlns:sodipodi="http://sodipodi.sourceforge.net/DTD/sodipodi-0.dtd"
   xmlns:inkscape="http://www.inkscape.org/namespaces/inkscape"
   xml:space="preserve"
   width="210mm"
   height="210mm"
   version="1.1"
   style="clip-rule:evenodd;fill-rule:evenodd;image-rendering:optimizeQuality;shape-rendering:geometricPrecision;text-rendering:geometricPrecision"
   viewBox="0 0 8267.9964 8267.7871"
   id="svg76"
   sodipodi:docname="letter.svg"
   inkscape:version="0.92.3 (2405546, 2018-03-11)"><metadata
   id="metadata80"><rdf:RDF><cc:Work
       rdf:about=""><dc:format>image/svg+xml</dc:format><dc:type
         rdf:resource="http://purl.org/dc/dcmitype/StillImage" /><dc:title></dc:title></cc:Work></rdf:RDF></metadata><sodipodi:namedview
   pagecolor="#ffffff"
   bordercolor="#666666"
   borderopacity="1"
   objecttolerance="10"
   gridtolerance="10"
   guidetolerance="10"
   inkscape:pageopacity="0"
   inkscape:pageshadow="2"
   inkscape:window-width="3840"
   inkscape:window-height="2028"
   id="namedview78"
   showgrid="false"
   inkscape:zoom="0.21024155"
   inkscape:cx="-5760.353"
   inkscape:cy="614.91"
   inkscape:window-x="-16"
   inkscape:window-y="-16"
   inkscape:window-maximized="1"
   inkscape:current-layer="svg76"
   units="mm" />
 <defs
   id="defs16">
  <style
   type="text/css"
   id="style2">
   <![CDATA[
    .str1 {stroke:#373435;stroke-width:27.7756}
    .str0 {stroke:black;stroke-width:27.7756}
    .fil4 {fill:#549FF2}
    .fil3 {fill:#99FF00}
    .fil2 {fill:red}
    .fil0 {fill:#FF6600}
    .fil1 {fill:yellow}
   ]]>
  </style>
    <clipPath
   id="id0">
     <path
   d="m -12189,-16439 h 9958 v 12352 h -9958 z"
   id="path4"
   inkscape:connector-curvature="0" />
    </clipPath>
    <clipPath
   id="id1">
     <path
   d="M 906,-16390 H 10909 V -3982 H 906 Z"
   id="path7"
   inkscape:connector-curvature="0" />
    </clipPath>
    <clipPath
   id="id2">
     <path
   d="M 14090,-16305 H 24154 V -3822 H 14090 Z"
   id="path10"
   inkscape:connector-curvature="0" />
    </clipPath>
    <clipPath
   id="id3">
     <path
   d="m -25774,-16284 h 9977 v 12375 h -9977 z"
   id="path13"
   inkscape:connector-curvature="0" />
    </clipPath>
 
  
  
  
  
  
  
  
  
  
 
   
   
  
   
   
  
   
   
  </defs>
 
<g
   style="clip-rule:evenodd;fill:#ff0000;fill-opacity:1;fill-rule:evenodd;stroke:none;image-rendering:optimizeQuality;shape-rendering:geometricPrecision;text-rendering:geometricPrecision"
   id="g44-1-5"
   transform="matrix(1.0090427,0,0,1.0090427,-1717.993,14931.343)"><path
     class="fil1 str1"
     d="m 3433,-14007 c 1370,106 1674,69 2805,-732 81,-55 157,-22 204,80 21,402 509,1306 1307,1033 103,-45 214,-155 202,-406 -27,-168 -145,-200 -260,-158 -222,127 -391,136 -538,-90 -88,-161 -43,-335 208,-479 607,-215 1052,515 966,1012 -121,666 -826,984 -1521,846 -616,-160 -921,-490 -1128,-873 -35,11 -70,22 -104,33 3,517 6,1034 8,1551 543,10 1086,21 1629,32 69,-2 94,28 95,105 17,229 35,459 52,689 -8,61 -51,79 -144,77 -486,0 -972,0 -1458,0 -90,-4 -121,44 -113,126 5,692 10,1383 15,2075 -2,84 10,136 74,125 977,-319 1429,631 1300,1325 -120,725 -823,1269 -1592,928 -389,-170 -683,-579 -650,-992 6,-70 83,-87 124,-35 103,170 227,334 399,486 210,157 550,247 861,49 520,-333 75,-1198 -618,-620 -28,29 -56,22 -83,0 -311,-226 -587,-380 -880,-404 -334,-37 -744,-30 -957,66 -126,38 -128,-150 -108,-202 12,-20 53,-46 80,-64 325,-213 441,-396 418,-769 -23,-596 6,-1199 -54,-1820 -36,-322 -296,-617 -671,-466 -14,5 -44,7 -39,-26 61,-222 172,-499 417,-498 h 334 v -922 c 0,-273 -125,-556 -595,-899 -71,-24 -101,-192 15,-183 z m 1496,473 262,-85 v 4758 l -218,117 z"
     id="path40-2-0"
     inkscape:connector-curvature="0"
     style="fill:#ff0000;fill-opacity:1;stroke:none;stroke-width:27.77560043" /><path
     class="fil1"
     d="m 3433,-14007 c 1370,106 1674,69 2805,-732 81,-55 157,-22 204,80 21,402 509,1306 1307,1033 103,-45 214,-155 202,-406 -27,-168 -145,-200 -260,-158 -222,127 -391,136 -538,-90 -88,-161 -43,-335 208,-479 607,-215 1052,515 966,1012 -121,666 -826,984 -1521,846 -616,-160 -921,-490 -1128,-873 -35,11 -70,22 -104,33 3,517 6,1034 8,1551 543,10 1086,21 1629,32 69,-2 94,28 95,105 17,229 35,459 52,689 -8,61 -51,79 -144,77 -486,0 -972,0 -1458,0 -90,-4 -121,44 -113,126 5,692 10,1383 15,2075 -2,84 10,136 74,125 977,-319 1429,631 1300,1325 -120,725 -823,1269 -1592,928 -389,-170 -683,-579 -650,-992 6,-70 83,-87 124,-35 103,170 227,334 399,486 210,157 550,247 861,49 520,-333 75,-1198 -618,-620 -28,29 -56,22 -83,0 -311,-226 -587,-380 -880,-404 -334,-37 -744,-30 -957,66 -126,38 -128,-150 -108,-202 12,-20 53,-46 80,-64 325,-213 441,-396 418,-769 -23,-596 6,-1199 -54,-1820 -36,-322 -296,-617 -671,-466 -14,5 -44,7 -39,-26 61,-222 172,-499 417,-498 h 334 v -922 c 0,-273 -125,-556 -595,-899 -71,-24 -101,-192 15,-183 z m 1496,473 262,-85 v 4758 l -218,117 z"
     id="path42-4-5"
     inkscape:connector-curvature="0"
     style="fill:#ff0000;fill-opacity:1;stroke:none" /></g></svg>