<?xml version="1.0" encoding="UTF-8" standalone="no"?>
<!-- Creator: CorelDRAW X7 -->

<svg
   xmlns:dc="http://purl.org/dc/elements/1.1/"
   xmlns:cc="http://creativecommons.org/ns#"
   xmlns:rdf="http://www.w3.org/1999/02/22-rdf-syntax-ns#"
   xmlns:svg="http://www.w3.org/2000/svg"
   xmlns="http://www.w3.org/2000/svg"
   xmlns:sodipodi="http://sodipodi.sourceforge.net/DTD/sodipodi-0.dtd"
   xmlns:inkscape="http://www.inkscape.org/namespaces/inkscape"
   xml:space="preserve"
   width="210mm"
   height="280mm"
   version="1.1"
   style="clip-rule:evenodd;fill-rule:evenodd;image-rendering:optimizeQuality;shape-rendering:geometricPrecision;text-rendering:geometricPrecision"
   viewBox="0 0 8267.9965 11023.717"
   id="svg76"
   sodipodi:docname="shield.svg"
   inkscape:version="0.92.3 (2405546, 2018-03-11)"><metadata
   id="metadata80"><rdf:RDF><cc:Work
       rdf:about=""><dc:format>image/svg+xml</dc:format><dc:type
         rdf:resource="http://purl.org/dc/dcmitype/StillImage" /><dc:title></dc:title></cc:Work></rdf:RDF></metadata><sodipodi:namedview
   pagecolor="#ffffff"
   bordercolor="#666666"
   borderopacity="1"
   objecttolerance="10"
   gridtolerance="10"
   guidetolerance="10"
   inkscape:pageopacity="0"
   inkscape:pageshadow="2"
   inkscape:window-width="3840"
   inkscape:window-height="2028"
   id="namedview78"
   showgrid="false"
   inkscape:zoom="0.074331612"
   inkscape:cx="-13321.708"
   inkscape:cy="-1563.3327"
   inkscape:window-x="-16"
   inkscape:window-y="-16"
   inkscape:window-maximized="1"
   inkscape:current-layer="svg76"
   inkscape:document-units="mm"
   units="mm" />
 <defs
   id="defs16">
  <style
   type="text/css"
   id="style2">
   <![CDATA[
    .str1 {stroke:#373435;stroke-width:27.7756}
    .str0 {stroke:black;stroke-width:27.7756}
    .fil4 {fill:#549FF2}
    .fil3 {fill:#99FF00}
    .fil2 {fill:red}
    .fil0 {fill:#FF6600}
    .fil1 {fill:yellow}
   ]]>
  </style>
    <clipPath
   id="id0">
     <path
   d="m -12189,-16439 h 9958 v 12352 h -9958 z"
   id="path4"
   inkscape:connector-curvature="0" />
    </clipPath>
    <clipPath
   id="id1">
     <path
   d="M 906,-16390 H 10909 V -3982 H 906 Z"
   id="path7"
   inkscape:connector-curvature="0" />
    </clipPath>
    <clipPath
   id="id2">
     <path
   d="M 14090,-16305 H 24154 V -3822 H 14090 Z"
   id="path10"
   inkscape:connector-curvature="0" />
    </clipPath>
    <clipPath
   id="id3">
     <path
   d="m -25774,-16284 h 9977 v 12375 h -9977 z"
   id="path13"
   inkscape:connector-curvature="0" />
    </clipPath>
 
  
  
  
  
  
  
  
  
  
 
   
   
  
   
   
  
   
   
  </defs>
 
<g
   id="g5431"
   transform="matrix(1.3228346,0,0,1.3228346,48942.647,5331.824)"><path
     sodipodi:nodetypes="cccccc"
     style="clip-rule:evenodd;fill:#5428f2;fill-opacity:1;fill-rule:evenodd;stroke-width:0.7924068;image-rendering:optimizeQuality;shape-rendering:geometricPrecision;text-rendering:geometricPrecision"
     inkscape:connector-curvature="0"
     id="path38-7-6-6"
     d="m -30749.439,-4030.7101 v 6123.0659 c 60.116,665.4832 -1916.419,2089.9733 -3123.625,2210.5495 -1322.564,-274.3863 -2931.901,-1242.8547 -3125.249,-2185.0429 v -6135.4329 z"
     class="fil2" /><g
     transform="matrix(0.72647291,0,0,0.72647291,-18709.701,7053.9564)"
     id="g72">
    <path
   style="fill:#ffff00;stroke:#373435;stroke-width:27.77560043"
   inkscape:connector-curvature="0"
   id="path68"
   d="m -20415,-13118 c -15,828 -8,1634 12,2436 -3,68 25,94 53,111 104,65 235,120 351,116 151,-38 373,-242 567,-495 33,-53 69,-47 110,20 379,475 833,664 1349,617 114,-10 204,-2 139,142 -257,455 -373,1543 -180,2203 39,84 46,128 -12,163 -875,552 -1668,794 -2431,923 -1929,266 -3327,-1224 -3476,-3098 -32,-2503 1851,-4335 4301,-4174 118,-7 152,29 126,71 -118,308 64,597 290,883 239,306 853,390 946,-100 6,-95 -43,-170 -120,-243 -122,-119 -294,209 -553,-78 -139,-223 -110,-401 57,-541 179,-137 388,-181 640,-54 191,104 341,282 416,591 108,948 -632,1538 -1464,1429 -479,-84 -858,-518 -1104,-944 -7,-11 -17,13 -17,22 z m 18,3104 c -17,280 -25,558 -21,833 0,78 3,123 106,115 401,-4 891,-39 1292,-81 61,-5 89,-27 89,-68 11,-205 22,-410 33,-616 -99,92 -212,169 -344,227 -194,64 -477,63 -671,-31 -263,-112 -373,-267 -478,-422 -2,14 -4,29 -6,43 z m -15,1522 c -4,-71 25,-105 76,-102 398,0 885,0 1283,0 63,-2 116,-9 116,50 -10,92 -19,210 -28,302 -253,454 -967,742 -1450,753 1,-324 2,-678 3,-1003 z m -1754,305 c 307,371 437,455 767,606 115,45 239,83 396,99 94,7 149,4 142,-95 -2,-308 -9,-615 -11,-924 8,-83 -57,-97 -156,-91 -500,7 -841,107 -1078,278 -26,17 -61,39 -81,60 -12,28 -4,42 21,67 z m -504,-923 c -18,-93 -30,-146 28,-174 182,-74 300,-117 502,-115 59,1 103,4 113,66 18,91 33,204 28,295 -1,106 -31,130 -70,167 -102,85 -205,166 -320,224 -54,31 -85,26 -115,-27 -65,-114 -152,-355 -166,-436 z m 19,-1601 c 168,76 349,101 549,54 40,-8 76,-13 113,-19 -5,229 -10,483 -15,712 -10,48 -49,46 -93,36 -211,-57 -423,4 -634,66 -45,20 -64,15 -75,-43 -48,-260 12,-520 60,-780 1,-50 33,-58 95,-26 z m 671,-1977 c 5,478 9,956 13,1434 -9,34 -48,35 -69,42 -217,48 -422,39 -580,-25 -16,-16 -12,-14 -7,-69 114,-634 476,-1238 571,-1363 95,-125 73,-114 72,-19 z m 832,-764 319,-110 -24,4530 -288,-156 z"
   class="fil1 str1" />
    <path
   style="fill:#ffff00"
   inkscape:connector-curvature="0"
   id="path70"
   d="m -20415,-13118 c -15,828 -8,1634 12,2436 -3,68 25,94 53,111 104,65 235,120 351,116 151,-38 373,-242 567,-495 33,-53 69,-47 110,20 379,475 833,664 1349,617 114,-10 204,-2 139,142 -257,455 -373,1543 -180,2203 39,84 46,128 -12,163 -875,552 -1668,794 -2431,923 -1929,266 -3327,-1224 -3476,-3098 -32,-2503 1851,-4335 4301,-4174 118,-7 152,29 126,71 -118,308 64,597 290,883 239,306 853,390 946,-100 6,-95 -43,-170 -120,-243 -122,-119 -294,209 -553,-78 -139,-223 -110,-401 57,-541 179,-137 388,-181 640,-54 191,104 341,282 416,591 108,948 -632,1538 -1464,1429 -479,-84 -858,-518 -1104,-944 -7,-11 -17,13 -17,22 z m 18,3104 c -17,280 -25,558 -21,833 0,78 3,123 106,115 401,-4 891,-39 1292,-81 61,-5 89,-27 89,-68 11,-205 22,-410 33,-616 -99,92 -212,169 -344,227 -194,64 -477,63 -671,-31 -263,-112 -373,-267 -478,-422 -2,14 -4,29 -6,43 z m -15,1522 c -4,-71 25,-105 76,-102 398,0 885,0 1283,0 63,-2 116,-9 116,50 -10,92 -19,210 -28,302 -253,454 -967,742 -1450,753 1,-324 2,-678 3,-1003 z m -1754,305 c 307,371 437,455 767,606 115,45 239,83 396,99 94,7 149,4 142,-95 -2,-308 -9,-615 -11,-924 8,-83 -57,-97 -156,-91 -500,7 -841,107 -1078,278 -26,17 -61,39 -81,60 -12,28 -4,42 21,67 z m -504,-923 c -18,-93 -30,-146 28,-174 182,-74 300,-117 502,-115 59,1 103,4 113,66 18,91 33,204 28,295 -1,106 -31,130 -70,167 -102,85 -205,166 -320,224 -54,31 -85,26 -115,-27 -65,-114 -152,-355 -166,-436 z m 19,-1601 c 168,76 349,101 549,54 40,-8 76,-13 113,-19 -5,229 -10,483 -15,712 -10,48 -49,46 -93,36 -211,-57 -423,4 -634,66 -45,20 -64,15 -75,-43 -48,-260 12,-520 60,-780 1,-50 33,-58 95,-26 z m 671,-1977 c 5,478 9,956 13,1434 -9,34 -48,35 -69,42 -217,48 -422,39 -580,-25 -16,-16 -12,-14 -7,-69 114,-634 476,-1238 571,-1363 95,-125 73,-114 72,-19 z m 832,-764 319,-110 -24,4530 -288,-156 z"
   class="fil1" />
   </g></g></svg>